<mxfile host="app.diagrams.net" agent="Mozilla/5.0 (Macintosh; Intel Mac OS X 10_15_7) AppleWebKit/537.36 (KHTML, like Gecko) Chrome/131.0.0.0 Safari/537.36" version="26.0.5">
  <diagram name="PÃ¡gina-1" id="U8x9v5WI5g8i2qzaIiDe">
    <mxGraphModel dx="1114" dy="691" grid="1" gridSize="10" guides="1" tooltips="1" connect="1" arrows="1" fold="1" page="1" pageScale="1" pageWidth="827" pageHeight="1169" math="0" shadow="0">
      <root>
        <mxCell id="0" />
        <mxCell id="1" parent="0" />
        <mxCell id="4TEyoO0OeXfm0volqhAp-1" value="" style="image;html=1;image=img/lib/clip_art/computers/Secure_System_128x128.png;fontStyle=0" vertex="1" parent="1">
          <mxGeometry x="269" y="200" width="290" height="230" as="geometry" />
        </mxCell>
      </root>
    </mxGraphModel>
  </diagram>
</mxfile>
